<svg width="25" height="24" viewBox="0 0 25 24" fill="none" xmlns="http://www.w3.org/2000/svg">
<path d="M24.9317 16.9301C24.8731 18.1704 24.6583 19.0231 24.3506 19.7619C24.0331 20.5462 23.5448 21.2484 22.9049 21.8321C22.2798 22.4249 21.5228 22.8856 20.6925 23.1774C19.8966 23.4647 18.9882 23.6653 17.6598 23.7199C16.3215 23.7793 15.8967 23.793 12.5025 23.793C9.10824 23.793 8.68339 23.7793 7.35008 23.7246C6.02174 23.6699 5.10851 23.4691 4.31737 23.182C3.47721 22.8856 2.72519 22.4296 2.10002 21.8321C1.46513 21.2484 0.971986 20.5416 0.65931 19.7664C0.351594 19.0231 0.136784 18.175 0.0782167 16.9347C0.0146895 15.6851 0 15.2885 0 12.1192C0 8.94996 0.0146895 8.55327 0.0732567 7.30834C0.131824 6.06804 0.346824 5.21534 0.654541 4.47647C0.971986 3.69217 1.46513 2.98999 2.10002 2.40627C2.72519 1.81346 3.48217 1.35282 4.31241 1.06105C5.10851 0.773731 6.01678 0.57316 7.34531 0.518475C8.67843 0.463612 9.10347 0.450073 12.4977 0.450073C15.8919 0.450073 16.3168 0.463612 17.6501 0.518475C18.9784 0.57316 19.8917 0.773731 20.6828 1.06105C22.3629 1.66758 23.6913 2.90788 24.3409 4.47647C24.6484 5.21979 24.8634 6.06804 24.922 7.30834C24.9805 8.55327 24.9952 8.94996 24.9952 12.1192C24.9952 15.2885 24.9902 15.6851 24.9317 16.9301ZM22.6804 7.39954C22.6266 6.25952 22.4215 5.64392 22.2506 5.23351C21.8305 4.21658 20.9661 3.40948 19.877 3.01725C19.4374 2.85765 18.7734 2.66616 17.5572 2.6161C16.2386 2.56124 15.8431 2.5477 12.5074 2.5477C9.17177 2.5477 8.77134 2.56124 7.45749 2.6161C6.23655 2.66616 5.57724 2.85765 5.1377 3.01725C4.59571 3.20428 4.10237 3.50068 3.70194 3.88829C3.28682 4.26681 2.96937 4.72282 2.76906 5.22888C2.59813 5.63928 2.39305 6.25952 2.33944 7.39491C2.28069 8.62613 2.26619 8.99556 2.26619 12.1101C2.26619 15.2247 2.28069 15.5986 2.33944 16.8252C2.39305 17.9652 2.59813 18.5808 2.76906 18.9912C2.96937 19.4974 3.28682 19.9579 3.7069 20.332C4.1121 20.7196 4.60048 21.016 5.14266 21.2028C5.5822 21.3624 6.24647 21.5539 7.46245 21.6041C8.78107 21.6588 9.17673 21.6725 12.5122 21.6725C15.8528 21.6725 16.2483 21.6588 17.5621 21.6041C18.7831 21.5539 19.4424 21.3624 19.8819 21.2028C20.4239 21.016 20.9173 20.7196 21.3177 20.332C21.7328 19.9534 22.0503 19.4974 22.2506 18.9912C22.4215 18.5808 22.6266 17.9607 22.6804 16.8252C22.7389 15.5939 22.7536 15.2247 22.7536 12.1101C22.7536 8.99556 22.7389 8.63076 22.6804 7.39954Z" fill="white"/>
<path d="M12.5025 18.1157C8.95698 18.1157 6.08032 15.4299 6.08032 12.1192C6.08032 8.80855 8.95698 6.12274 12.5025 6.12274C16.0482 6.12274 18.9247 8.80855 18.9247 12.1192C18.9247 15.4299 16.0482 18.1157 12.5025 18.1157ZM12.5025 8.22946C10.2023 8.22946 8.33659 9.97137 8.33659 12.1192C8.33659 14.2671 10.2023 16.009 12.5025 16.009C14.8028 16.009 16.6684 14.2671 16.6684 12.1192C16.6684 9.97137 14.8028 8.22946 12.5025 8.22946Z" fill="white"/>
<path d="M20.6785 18.3525C20.6785 17.5793 20.0071 16.9523 19.1788 16.9523C18.3507 16.9523 17.6792 17.5793 17.6792 18.3525C17.6792 19.126 18.3507 19.7527 19.1788 19.7527C20.0071 19.7527 20.6785 19.126 20.6785 18.3525Z" fill="white"/>
</svg>
