<svg width="43" height="37" viewBox="0 0 43 37" fill="none" xmlns="http://www.w3.org/2000/svg">
<path d="M1.19641 17.7414L10.9884 21.396L14.7785 33.5849C15.021 34.3656 15.9756 34.6541 16.6092 34.1361L22.0674 29.6865C22.6395 29.2203 23.4545 29.1971 24.0524 29.6311L33.8971 36.7785C34.5749 37.2712 35.5352 36.8998 35.7051 36.0807L42.9169 1.39096C43.1024 0.496279 42.2233 -0.250095 41.3714 0.0793918L1.18493 15.5821C0.193216 15.9646 0.201856 17.3687 1.19641 17.7414ZM14.1677 19.4506L33.3048 7.66397C33.6487 7.45276 34.0026 7.91781 33.7073 8.19177L17.9136 22.8728C17.3584 23.3895 17.0003 24.0811 16.8989 24.8317L16.3609 28.8187C16.2896 29.351 15.5418 29.4039 15.3949 28.8887L13.3258 21.6183C13.0888 20.789 13.4342 19.9033 14.1677 19.4506Z" fill="white"/>
</svg>
