<svg width="47" height="27" viewBox="0 0 47 27" fill="none" xmlns="http://www.w3.org/2000/svg">
<path d="M41.0296 10.9746C41.6838 10.1288 42.2032 9.4502 42.5868 8.93821C45.3494 5.26529 46.5468 2.91901 46.1798 1.89607L46.0359 1.6565C45.9402 1.5126 45.6921 1.38046 45.2933 1.26084C44.8939 1.14132 44.383 1.12222 43.7604 1.20113L36.8618 1.24978C36.702 1.23388 36.5422 1.2376 36.3825 1.26084C36.2228 1.28513 36.1192 1.3095 36.071 1.33275C36.0228 1.35712 35.9832 1.37666 35.9514 1.39256L35.8558 1.46446C35.7759 1.51208 35.6882 1.59618 35.5924 1.71631C35.4966 1.83635 35.4162 1.9755 35.3528 2.13573C34.6023 4.06786 33.748 5.86465 32.7897 7.5255C32.1988 8.51568 31.6556 9.37466 31.1611 10.1003C30.666 10.8276 30.2508 11.3624 29.9154 11.705C29.5801 12.0483 29.2764 12.3244 29.0052 12.5313C28.7333 12.7396 28.526 12.8269 28.3827 12.7952C28.2387 12.7635 28.1029 12.7318 27.9754 12.6989C27.7517 12.5556 27.5718 12.3604 27.4364 12.1124C27.3006 11.8654 27.2091 11.5538 27.1608 11.1783C27.1132 10.8033 27.0847 10.4796 27.0773 10.2077C27.0688 9.93643 27.073 9.55347 27.0894 9.05782C27.1053 8.56269 27.1132 8.22796 27.1132 8.05183C27.1132 7.44564 27.1254 6.78664 27.1493 6.07579C27.1731 5.36546 27.1932 4.80214 27.2091 4.38686C27.225 3.97219 27.2328 3.53263 27.2328 3.0693C27.2328 2.60701 27.2048 2.24307 27.1486 1.97921C27.0926 1.71631 27.0085 1.46083 26.8974 1.21279C26.7853 0.965787 26.6218 0.77375 26.406 0.638407C26.1903 0.50246 25.923 0.395119 25.6037 0.314657C24.7568 0.122619 23.6789 0.0200312 22.3698 0.00317816C19.3994 -0.0275029 17.491 0.16393 16.6447 0.578601C16.3094 0.754736 16.0058 0.99379 15.7345 1.2974C15.4468 1.64916 15.4071 1.84111 15.615 1.87179C16.5733 2.01569 17.2515 2.35949 17.6508 2.90215L17.7947 3.18935C17.9063 3.39772 18.0179 3.76486 18.13 4.29162C18.2417 4.81847 18.3136 5.40133 18.3458 6.04027C18.4257 7.20598 18.4257 8.20359 18.3458 9.03457C18.266 9.86547 18.1904 10.5118 18.1185 10.9741C18.0465 11.4375 17.9386 11.8125 17.7952 12.0997C17.6513 12.3879 17.5557 12.5635 17.5075 12.6275C17.4594 12.6909 17.4197 12.7311 17.388 12.7471C17.1801 12.8264 16.9648 12.8666 16.7412 12.8666C16.5174 12.8666 16.246 12.7544 15.9266 12.5307C15.6071 12.308 15.2755 12.0002 14.9327 11.6088C14.5889 11.2179 14.2023 10.6705 13.7706 9.96754C13.3396 9.26568 12.892 8.43469 12.4292 7.47684L12.0463 6.7818C11.8067 6.33541 11.4792 5.68428 11.0641 4.83005C10.6489 3.97582 10.2812 3.14968 9.9623 2.3505C9.8343 2.01569 9.64278 1.76021 9.38739 1.58408L9.26787 1.51217C9.18801 1.44865 9.06001 1.38046 8.8844 1.30898C8.70826 1.23708 8.5253 1.18522 8.33326 1.15299L1.76983 1.20061C1.09917 1.20061 0.644313 1.35297 0.404741 1.6565L0.308982 1.79988C0.260583 1.88026 0.236816 2.00825 0.236816 2.18335C0.236816 2.35949 0.284955 2.57477 0.380715 2.82973C1.33909 5.0819 2.38112 7.25369 3.50664 9.34502C4.63277 11.4375 5.61076 13.1226 6.44114 14.4C7.27152 15.6784 8.1178 16.8832 8.9805 18.0172C9.8432 19.1512 10.4139 19.8774 10.6931 20.1964C10.9724 20.5164 11.1919 20.7561 11.3517 20.9152L11.9504 21.4906C12.3334 21.8736 12.8967 22.3326 13.6394 22.868C14.3819 23.4032 15.2039 23.93 16.1068 24.4484C17.0087 24.9678 18.0591 25.3904 19.2565 25.7184C20.454 26.0463 21.6197 26.1779 22.7537 26.1134H25.5085C26.0675 26.0658 26.4905 25.8908 26.7779 25.5866L26.8736 25.467C26.937 25.3718 26.9973 25.2237 27.0533 25.0243C27.1089 24.8249 27.1376 24.6048 27.1376 24.3658C27.1211 23.6793 27.1735 23.0594 27.2931 22.5093C27.4126 21.9582 27.5484 21.5435 27.7004 21.2632C27.8521 20.9844 28.0234 20.7485 28.2154 20.5565C28.407 20.3645 28.5423 20.2497 28.6227 20.2095C28.7026 20.1704 28.7667 20.1423 28.8143 20.1254C29.1972 19.9978 29.6483 20.1217 30.1678 20.4967C30.6867 20.8728 31.1738 21.335 31.6292 21.8862C32.084 22.4373 32.6309 23.0556 33.2699 23.7427C33.9083 24.4291 34.4673 24.9401 34.9466 25.2754L35.4258 25.5637C35.7451 25.7547 36.1599 25.9303 36.6714 26.0906C37.1823 26.2498 37.6298 26.29 38.0127 26.2101L44.145 26.1138C44.7517 26.1138 45.223 26.0145 45.5584 25.8145C45.8937 25.6161 46.0932 25.395 46.1572 25.156C46.2206 24.9164 46.2249 24.6462 46.1694 24.3419C46.1134 24.0388 46.0573 23.8273 46.0018 23.7078C45.9458 23.5882 45.8938 23.4877 45.8456 23.4084C45.0471 21.9713 43.5221 20.2062 41.2704 18.1144L41.2223 18.0667L41.1985 18.0425L41.1748 18.0191H41.1507C40.1283 17.0449 39.4819 16.39 39.2106 16.0542C38.7156 15.4163 38.6034 14.7694 38.8753 14.1147C39.0657 13.6182 39.784 12.572 41.0296 10.9746Z" fill="white"/>
</svg>
